<svg width="24" height="24" viewBox="0 0 24 24" fill="none" xmlns="http://www.w3.org/2000/svg">
<path d="M10.3122 11.7923L12.0001 12.3548L13.6879 11.7923L12.0001 8.97864L10.3122 11.7923Z" fill="white"/>
<path d="M12 13.1249C12.0029 13.1649 10.6339 12.683 10.5929 12.676L12 15.0211L13.407 12.676C13.367 12.6824 11.9962 13.1654 12 13.1249Z" fill="white"/>
<path d="M12 1.875C9.99749 1.875 8.03992 2.46882 6.37487 3.58137C4.70983 4.69392 3.41208 6.27523 2.64574 8.12533C1.8794 9.97543 1.6789 12.0112 2.06957 13.9753C2.46025 15.9393 3.42456 17.7435 4.84057 19.1595C6.25657 20.5755 8.06067 21.5398 10.0247 21.9305C11.9888 22.3211 14.0246 22.1206 15.8747 21.3543C17.7248 20.5879 19.3061 19.2902 20.4187 17.6251C21.5312 15.9601 22.125 14.0025 22.125 12C22.122 9.31562 21.0542 6.74206 19.1561 4.84392C17.258 2.94578 14.6844 1.87806 12 1.875V1.875ZM21.2325 10.3721C21.2454 10.4451 21.2363 10.5203 21.2065 10.5882C21.1766 10.6561 21.1272 10.7136 21.0647 10.7534C21.0021 10.7933 20.9292 10.8137 20.855 10.8121C20.7809 10.8104 20.7089 10.7869 20.6481 10.7443C20.5874 10.7018 20.5406 10.6422 20.5137 10.5731C20.4868 10.5039 20.4811 10.4284 20.4971 10.356C20.5132 10.2836 20.5503 10.2176 20.6039 10.1663C20.6575 10.115 20.725 10.0807 20.7981 10.0679C20.8466 10.0593 20.8963 10.0604 20.9444 10.071C20.9925 10.0817 21.038 10.1017 21.0783 10.13C21.1186 10.1582 21.153 10.1941 21.1795 10.2357C21.206 10.2772 21.224 10.3235 21.2325 10.3721ZM20.3288 8.56943C20.3985 8.54406 20.4741 8.53993 20.5462 8.55756C20.6182 8.57519 20.6834 8.61379 20.7335 8.66847C20.7836 8.72316 20.8164 8.79147 20.8277 8.86477C20.8389 8.93808 20.8282 9.01308 20.7969 9.0803C20.7655 9.14752 20.715 9.20393 20.6516 9.24241C20.5881 9.28088 20.5148 9.29969 20.4407 9.29645C20.3666 9.29322 20.2951 9.26808 20.2353 9.22422C20.1755 9.18037 20.13 9.11976 20.1046 9.05006C20.0878 9.00377 20.0802 8.95462 20.0824 8.90541C20.0846 8.8562 20.0964 8.8079 20.1172 8.76326C20.1381 8.71863 20.1675 8.67854 20.2038 8.64528C20.2402 8.61202 20.2827 8.58625 20.329 8.56943H20.3288ZM19.6065 7.17525C19.6708 7.13816 19.7445 7.12096 19.8185 7.12581C19.8926 7.13065 19.9635 7.15734 20.0223 7.20249C20.0812 7.24764 20.1253 7.30922 20.1491 7.37946C20.173 7.44969 20.1755 7.52541 20.1563 7.59706C20.1371 7.6687 20.0971 7.73304 20.0413 7.78194C19.9855 7.83084 19.9165 7.86211 19.843 7.87179C19.7694 7.88148 19.6947 7.86913 19.6282 7.83633C19.5617 7.80353 19.5064 7.75173 19.4693 7.6875C19.4447 7.64484 19.4287 7.59775 19.4223 7.54892C19.4159 7.50008 19.4191 7.45047 19.4319 7.4029C19.4447 7.35533 19.4667 7.31074 19.4967 7.27168C19.5267 7.23262 19.5641 7.19986 19.6067 7.17525H19.6065ZM19.875 12C19.875 13.5575 19.4132 15.0801 18.5478 16.3751C17.6825 17.6702 16.4526 18.6795 15.0137 19.2756C13.5747 19.8716 11.9913 20.0275 10.4637 19.7237C8.93608 19.4198 7.53289 18.6698 6.43156 17.5685C5.33022 16.4671 4.5802 15.0639 4.27634 13.5363C3.97248 12.0087 4.12843 10.4253 4.72447 8.98637C5.32051 7.5474 6.32987 6.31749 7.62491 5.45218C8.91994 4.58686 10.4425 4.125 12 4.125C14.0879 4.1274 16.0895 4.95786 17.5658 6.43419C19.0422 7.91052 19.8726 9.91216 19.875 12V12ZM18.6533 5.92766C18.7102 5.87998 18.7798 5.85022 18.8536 5.84214C18.9273 5.83407 19.0018 5.84803 19.0675 5.88228C19.1333 5.91652 19.1875 5.9695 19.2232 6.03453C19.2589 6.09955 19.2744 6.1737 19.268 6.24758C19.2615 6.32147 19.2333 6.39178 19.1869 6.44963C19.1405 6.50747 19.0779 6.55025 19.0072 6.57256C18.9364 6.59486 18.8607 6.59569 18.7895 6.57493C18.7183 6.55418 18.6548 6.51278 18.6071 6.45596C18.5432 6.37978 18.5122 6.28132 18.5208 6.18224C18.5295 6.08317 18.5772 5.99159 18.6533 5.92766V5.92766ZM17.4979 4.86454C17.5455 4.80773 17.609 4.76633 17.6802 4.74558C17.7514 4.72483 17.8272 4.72566 17.8979 4.74797C17.9686 4.77028 18.0312 4.81306 18.0776 4.8709C18.124 4.92875 18.1522 4.99906 18.1587 5.07294C18.1651 5.14683 18.1495 5.22097 18.1139 5.28599C18.0782 5.35101 18.024 5.404 17.9583 5.43824C17.8925 5.47249 17.818 5.48645 17.7443 5.47838C17.6705 5.4703 17.6009 5.44055 17.5441 5.39287C17.5063 5.36122 17.4752 5.32244 17.4525 5.27876C17.4297 5.23507 17.4158 5.18734 17.4115 5.13828C17.4072 5.08921 17.4127 5.03979 17.4275 4.99282C17.4423 4.94585 17.4662 4.90226 17.4979 4.86454ZM16.1753 4.01827C16.2124 3.95404 16.2677 3.90225 16.3342 3.86945C16.4007 3.83664 16.4754 3.8243 16.549 3.83398C16.6225 3.84366 16.6915 3.87493 16.7473 3.92383C16.8031 3.97274 16.8431 4.03708 16.8623 4.10872C16.8815 4.18036 16.879 4.25609 16.8551 4.32632C16.8313 4.39655 16.7872 4.45814 16.7283 4.50328C16.6695 4.54843 16.5986 4.57512 16.5245 4.57997C16.4505 4.58482 16.3768 4.56761 16.3125 4.53052C16.2264 4.4808 16.1635 4.39889 16.1378 4.30282C16.1121 4.20676 16.1255 4.1044 16.1753 4.01827ZM14.7258 3.41453C14.7512 3.34483 14.7967 3.28423 14.8565 3.24038C14.9163 3.19653 14.9878 3.1714 15.0619 3.16816C15.136 3.16493 15.2093 3.18374 15.2727 3.22222C15.3361 3.2607 15.3867 3.31711 15.4181 3.38433C15.4494 3.45155 15.4601 3.52655 15.4488 3.59985C15.4376 3.67315 15.4048 3.74147 15.3547 3.79615C15.3046 3.85083 15.2394 3.88943 15.1673 3.90706C15.0953 3.92469 15.0197 3.92056 14.95 3.8952C14.9037 3.87836 14.8612 3.85256 14.8248 3.81929C14.7885 3.78601 14.7591 3.74591 14.7383 3.70127C14.7175 3.65663 14.7057 3.60833 14.7035 3.55912C14.7014 3.50992 14.709 3.46077 14.7258 3.41449V3.41453ZM13.628 2.7675C13.701 2.78038 13.7686 2.81463 13.8222 2.86592C13.8757 2.91721 13.9129 2.98323 13.929 3.05564C13.945 3.12805 13.9392 3.20359 13.9123 3.27272C13.8855 3.34184 13.8387 3.40144 13.7779 3.44398C13.7172 3.48652 13.6452 3.51009 13.571 3.51171C13.4969 3.51333 13.4239 3.49293 13.3614 3.45308C13.2988 3.41323 13.2495 3.35573 13.2196 3.28784C13.1897 3.21996 13.1807 3.14474 13.1935 3.0717C13.2021 3.0232 13.2201 2.97686 13.2466 2.93532C13.273 2.89379 13.3074 2.85787 13.3477 2.82962C13.3881 2.80137 13.4336 2.78135 13.4817 2.77069C13.5298 2.76003 13.5795 2.75895 13.628 2.7675V2.7675ZM12 2.625C12.0742 2.625 12.1467 2.64699 12.2084 2.6882C12.27 2.7294 12.3181 2.78797 12.3465 2.85649C12.3749 2.92502 12.3823 3.00042 12.3678 3.07316C12.3533 3.1459 12.3176 3.21272 12.2652 3.26516C12.2127 3.31761 12.1459 3.35333 12.0732 3.36779C12.0004 3.38226 11.925 3.37484 11.8565 3.34645C11.788 3.31807 11.7294 3.27001 11.6882 3.20834C11.647 3.14667 11.625 3.07417 11.625 3C11.625 2.90054 11.6645 2.80516 11.7349 2.73484C11.8052 2.66451 11.9006 2.625 12 2.625ZM10.3721 2.7675C10.4451 2.75462 10.5203 2.76368 10.5882 2.79355C10.6561 2.82342 10.7136 2.87275 10.7535 2.9353C10.7933 2.99785 10.8137 3.07081 10.8121 3.14496C10.8105 3.21911 10.7869 3.29112 10.7444 3.35187C10.7019 3.41263 10.6423 3.45941 10.5731 3.4863C10.504 3.51318 10.4285 3.51896 10.3561 3.50291C10.2837 3.48687 10.2176 3.44971 10.1663 3.39613C10.115 3.34256 10.0808 3.27498 10.0679 3.20194C10.0594 3.15344 10.0604 3.10373 10.0711 3.05565C10.0817 3.00758 10.1018 2.96207 10.13 2.92172C10.1583 2.88138 10.1942 2.847 10.2357 2.82054C10.2772 2.79408 10.3236 2.77605 10.3721 2.7675ZM8.79377 3.19039C8.86347 3.16502 8.93912 3.16089 9.01116 3.17852C9.0832 3.19615 9.1484 3.23475 9.19851 3.28943C9.24861 3.34412 9.28138 3.41243 9.29266 3.48574C9.30394 3.55904 9.29323 3.63405 9.26188 3.70126C9.23054 3.76848 9.17996 3.8249 9.11655 3.86337C9.05315 3.90185 8.97975 3.92065 8.90566 3.91742C8.83156 3.91418 8.76008 3.88904 8.70027 3.84519C8.64046 3.80133 8.595 3.74072 8.56963 3.67103C8.55279 3.62475 8.54523 3.57561 8.54738 3.52641C8.54953 3.47721 8.56135 3.42892 8.58216 3.38429C8.60297 3.33965 8.63237 3.29956 8.66868 3.26629C8.70499 3.23302 8.7475 3.20723 8.79377 3.19039V3.19039ZM7.31252 3.88102C7.37675 3.84394 7.45054 3.82673 7.52455 3.83158C7.59856 3.83643 7.66947 3.86312 7.72831 3.90826C7.78715 3.95341 7.83129 4.015 7.85513 4.08523C7.87897 4.15546 7.88145 4.23119 7.86226 4.30283C7.84306 4.37447 7.80305 4.43881 7.74729 4.48772C7.69153 4.53662 7.62252 4.56789 7.54898 4.57757C7.47545 4.58725 7.40069 4.57491 7.33417 4.5421C7.26765 4.5093 7.21236 4.45751 7.17527 4.39327C7.12555 4.30715 7.11207 4.20479 7.13781 4.10873C7.16355 4.01266 7.22639 3.93075 7.31252 3.88102ZM5.97377 4.81852C6.03059 4.77085 6.10026 4.74109 6.17399 4.73301C6.24772 4.72493 6.32218 4.73889 6.38797 4.77314C6.45376 4.80738 6.50792 4.86037 6.5436 4.92539C6.57928 4.99042 6.59487 5.06456 6.58841 5.13845C6.58195 5.21233 6.55372 5.28264 6.5073 5.34049C6.46088 5.39833 6.39834 5.44111 6.32761 5.46342C6.25687 5.48572 6.18111 5.48655 6.10991 5.4658C6.0387 5.44504 5.97525 5.40364 5.92757 5.34682C5.89589 5.3091 5.87195 5.2655 5.85713 5.21851C5.8423 5.17153 5.83688 5.12209 5.84117 5.07301C5.84546 5.02393 5.85938 4.97618 5.88213 4.93248C5.90488 4.88878 5.93602 4.85 5.97377 4.81834V4.81852ZM4.81836 5.97375C4.86603 5.91693 4.92948 5.87552 5.00069 5.85477C5.07189 5.83401 5.14765 5.83483 5.21839 5.85713C5.28913 5.87943 5.35166 5.92221 5.39809 5.98005C5.44451 6.03789 5.47274 6.1082 5.47921 6.18208C5.48568 6.25597 5.47009 6.33012 5.43442 6.39514C5.39874 6.46017 5.34459 6.51316 5.2788 6.54741C5.21301 6.58165 5.13855 6.59563 5.06482 6.58755C4.99109 6.57948 4.92141 6.54972 4.8646 6.50205C4.78841 6.43812 4.74074 6.34655 4.73207 6.24748C4.7234 6.1484 4.75444 6.04994 4.81836 5.97375V5.97375ZM3.88086 7.3125C3.91794 7.24827 3.97324 7.19647 4.03976 7.16367C4.10628 7.13087 4.18103 7.11852 4.25457 7.12821C4.3281 7.13789 4.39711 7.16916 4.45288 7.21806C4.50864 7.26696 4.54865 7.3313 4.56784 7.40294C4.58704 7.47459 4.58456 7.55031 4.56072 7.62054C4.53688 7.69078 4.49274 7.75236 4.4339 7.79751C4.37506 7.84266 4.30415 7.86935 4.23014 7.87419C4.15613 7.87904 4.08234 7.86184 4.01811 7.82475C3.93201 7.77499 3.86921 7.69307 3.8435 7.59701C3.8178 7.50095 3.83131 7.39861 3.88105 7.3125H3.88086ZM3.19041 8.79375C3.21578 8.72405 3.26124 8.66345 3.32106 8.61959C3.38087 8.57573 3.45235 8.5506 3.52645 8.54737C3.60054 8.54414 3.67394 8.56295 3.73734 8.60143C3.80075 8.63991 3.85132 8.69632 3.88266 8.76355C3.91401 8.83077 3.92471 8.90577 3.91343 8.97908C3.90214 9.05238 3.86937 9.12069 3.81926 9.17537C3.76915 9.23005 3.70395 9.26865 3.6319 9.28627C3.55986 9.3039 3.4842 9.29976 3.41451 9.27439C3.32106 9.24037 3.24495 9.17062 3.20292 9.08048C3.16089 8.99034 3.15639 8.8872 3.19041 8.79375ZM3.20188 10.068C3.27492 10.0809 3.3425 10.1152 3.39608 10.1665C3.44965 10.2177 3.48681 10.2838 3.50287 10.3562C3.51892 10.4286 3.51314 10.5041 3.48626 10.5733C3.45937 10.6424 3.4126 10.702 3.35185 10.7445C3.29109 10.7871 3.21909 10.8106 3.14494 10.8122C3.07079 10.8139 2.99783 10.7935 2.93527 10.7536C2.87272 10.7138 2.82339 10.6563 2.79352 10.5884C2.76364 10.5205 2.75457 10.4453 2.76745 10.3722C2.77597 10.3237 2.79398 10.2774 2.82043 10.2358C2.84688 10.1942 2.88126 10.1583 2.9216 10.13C2.96195 10.1018 3.00747 10.0817 3.05556 10.0711C3.10365 10.0604 3.15337 10.0593 3.20188 10.0679V10.068ZM2.62502 12C2.62502 11.9258 2.64702 11.8533 2.68822 11.7917C2.72943 11.73 2.78799 11.6819 2.85652 11.6535C2.92504 11.6252 3.00044 11.6177 3.07318 11.6322C3.14592 11.6467 3.21274 11.6824 3.26519 11.7348C3.31763 11.7873 3.35335 11.8541 3.36782 11.9268C3.38229 11.9996 3.37486 12.075 3.34648 12.1435C3.31809 12.212 3.27003 12.2706 3.20836 12.3118C3.14669 12.353 3.07419 12.375 3.00002 12.375C2.90057 12.375 2.80518 12.3355 2.73486 12.2652C2.66453 12.1948 2.62502 12.0995 2.62502 12V12ZM2.76752 13.628C2.75464 13.5549 2.7637 13.4797 2.79357 13.4118C2.82344 13.3439 2.87277 13.2864 2.93532 13.2466C2.99787 13.2067 3.07083 13.1863 3.14498 13.1879C3.21913 13.1895 3.29114 13.2131 3.3519 13.2556C3.41265 13.2982 3.45943 13.3578 3.48632 13.4269C3.5132 13.496 3.51899 13.5715 3.50294 13.644C3.48689 13.7164 3.44973 13.7824 3.39615 13.8337C3.34258 13.885 3.275 13.9192 3.20196 13.9321C3.15346 13.9407 3.10375 13.9396 3.05568 13.9289C3.0076 13.9183 2.96209 13.8983 2.92175 13.87C2.88141 13.8418 2.84702 13.8058 2.82056 13.7643C2.7941 13.7228 2.77608 13.6764 2.76752 13.628ZM3.67127 15.4305C3.60158 15.4559 3.52592 15.46 3.45388 15.4424C3.38183 15.4248 3.31663 15.3862 3.26653 15.3315C3.21642 15.2768 3.18365 15.2085 3.17237 15.1352C3.16109 15.0619 3.1718 14.9869 3.20315 14.9197C3.2345 14.8524 3.28508 14.796 3.34849 14.7575C3.4119 14.7191 3.4853 14.7003 3.5594 14.7035C3.6335 14.7068 3.70497 14.7319 3.76478 14.7758C3.82459 14.8196 3.87005 14.8802 3.89541 14.9499C3.91224 14.9962 3.91979 15.0454 3.91762 15.0946C3.91545 15.1438 3.90361 15.1921 3.88278 15.2367C3.86195 15.2813 3.83252 15.3214 3.79619 15.3547C3.75986 15.3879 3.71734 15.4137 3.67105 15.4305H3.67127ZM4.39352 16.8248C4.32929 16.8618 4.25551 16.879 4.1815 16.8742C4.10749 16.8693 4.03658 16.8427 3.97773 16.7975C3.91889 16.7524 3.87476 16.6908 3.85091 16.6205C3.82707 16.5503 3.82459 16.4746 3.84379 16.4029C3.86298 16.3313 3.90299 16.267 3.95875 16.2181C4.01452 16.1692 4.08353 16.1379 4.15706 16.1282C4.2306 16.1185 4.30535 16.1309 4.37187 16.1637C4.43839 16.1965 4.49369 16.2483 4.53077 16.3125C4.55538 16.3552 4.57135 16.4023 4.57776 16.4511C4.58417 16.4999 4.5809 16.5495 4.56814 16.5971C4.55537 16.6447 4.53336 16.6893 4.50336 16.7283C4.47336 16.7674 4.43596 16.8001 4.3933 16.8248H4.39352ZM5.34692 18.0723C5.29011 18.12 5.22043 18.1498 5.1467 18.1579C5.07298 18.1659 4.99851 18.152 4.93272 18.1177C4.86693 18.0835 4.81277 18.0305 4.77709 17.9655C4.74142 17.9004 4.72582 17.8263 4.73228 17.7524C4.73875 17.6785 4.76697 17.6082 4.81339 17.5504C4.85982 17.4925 4.92235 17.4497 4.99308 17.4274C5.06382 17.4051 5.13958 17.4043 5.21079 17.4251C5.28199 17.4458 5.34545 17.4872 5.39312 17.544C5.42476 17.5818 5.44866 17.6254 5.46345 17.6723C5.47824 17.7193 5.48364 17.7687 5.47933 17.8178C5.47501 17.8669 5.46108 17.9146 5.43833 17.9583C5.41557 18.0019 5.38443 18.0407 5.3467 18.0723H5.34692ZM6.50241 19.1354C6.45473 19.1922 6.39128 19.2336 6.32007 19.2544C6.24887 19.2752 6.17311 19.2743 6.10237 19.252C6.03164 19.2297 5.9691 19.1869 5.92268 19.1291C5.87626 19.0712 5.84803 19.0009 5.84157 18.927C5.83511 18.8532 5.8507 18.779 5.88638 18.714C5.92206 18.649 5.97622 18.596 6.04201 18.5617C6.1078 18.5275 6.18226 18.5135 6.25599 18.5216C6.32972 18.5297 6.3994 18.5594 6.45621 18.6071C6.53236 18.6711 6.57998 18.7627 6.5886 18.8618C6.59722 18.9608 6.56614 19.0593 6.50218 19.1354H6.50241ZM7.825 19.9817C7.78791 20.046 7.73261 20.0978 7.66609 20.1306C7.59958 20.1634 7.52482 20.1757 7.45129 20.166C7.37775 20.1563 7.30874 20.1251 7.25298 20.0762C7.19722 20.0273 7.15721 19.9629 7.13801 19.8913C7.11882 19.8196 7.1213 19.7439 7.14514 19.6737C7.16898 19.6034 7.21311 19.5419 7.27196 19.4967C7.3308 19.4516 7.40171 19.4249 7.47572 19.42C7.54973 19.4152 7.62352 19.4324 7.68775 19.4695C7.77384 19.5192 7.83663 19.6012 7.86233 19.6972C7.88803 19.7933 7.87452 19.8956 7.82477 19.9817H7.825ZM9.27445 20.5855C9.24908 20.6552 9.20361 20.7158 9.1438 20.7596C9.08398 20.8035 9.01251 20.8286 8.93841 20.8318C8.86432 20.8351 8.79093 20.8163 8.72752 20.7778C8.66412 20.7393 8.61355 20.6829 8.5822 20.6157C8.55086 20.5485 8.54015 20.4735 8.55144 20.4001C8.56272 20.3268 8.59548 20.2585 8.64559 20.2039C8.69569 20.1492 8.76088 20.1106 8.83292 20.0929C8.90496 20.0753 8.98061 20.0794 9.05031 20.1048C9.14374 20.1389 9.21983 20.2086 9.26182 20.2988C9.30381 20.3889 9.30827 20.4921 9.27422 20.5855L9.27445 20.5855ZM10.3721 21.2325C10.299 21.2196 10.2315 21.1854 10.1779 21.1341C10.1243 21.0828 10.0871 21.0168 10.0711 20.9444C10.055 20.8719 10.0608 20.7964 10.0877 20.7273C10.1146 20.6582 10.1614 20.5986 10.2221 20.556C10.2829 20.5135 10.3549 20.4899 10.429 20.4883C10.5032 20.4867 10.5761 20.5071 10.6387 20.5469C10.7012 20.5868 10.7506 20.6443 10.7804 20.7122C10.8103 20.78 10.8194 20.8553 10.8065 20.9283C10.798 20.9768 10.7799 21.0231 10.7535 21.0647C10.727 21.1062 10.6926 21.1421 10.6523 21.1704C10.612 21.1986 10.5664 21.2187 10.5184 21.2293C10.4703 21.24 10.4206 21.2411 10.3721 21.2325ZM12 21.375C11.9259 21.375 11.8534 21.353 11.7917 21.3118C11.73 21.2706 11.6819 21.212 11.6536 21.1435C11.6252 21.075 11.6178 20.9996 11.6322 20.9268C11.6467 20.8541 11.6824 20.7873 11.7349 20.7348C11.7873 20.6824 11.8541 20.6467 11.9269 20.6322C11.9996 20.6177 12.075 20.6252 12.1435 20.6535C12.212 20.6819 12.2706 20.73 12.3118 20.7917C12.353 20.8533 12.375 20.9258 12.375 21C12.375 21.0995 12.3355 21.1948 12.2652 21.2652C12.1949 21.3355 12.0995 21.375 12 21.375ZM13.628 21.2325C13.5549 21.2454 13.4797 21.2363 13.4118 21.2064C13.3439 21.1766 13.2864 21.1273 13.2466 21.0647C13.2067 21.0022 13.1863 20.9292 13.1879 20.855C13.1895 20.7809 13.2131 20.7089 13.2556 20.6481C13.2982 20.5874 13.3578 20.5406 13.4269 20.5137C13.496 20.4868 13.5716 20.481 13.644 20.4971C13.7164 20.5131 13.7824 20.5503 13.8337 20.6039C13.885 20.6574 13.9193 20.725 13.9321 20.7981C13.9407 20.8466 13.9396 20.8963 13.929 20.9443C13.9183 20.9924 13.8983 21.0379 13.87 21.0783C13.8418 21.1186 13.8059 21.153 13.7643 21.1795C13.7228 21.2059 13.6765 21.2239 13.628 21.2325ZM15.2065 20.8095C15.1368 20.8349 15.0611 20.839 14.9891 20.8214C14.917 20.8038 14.8518 20.7652 14.8017 20.7105C14.7516 20.6558 14.7189 20.5875 14.7076 20.5142C14.6963 20.4409 14.707 20.3659 14.7383 20.2987C14.7697 20.2314 14.8203 20.175 14.8837 20.1366C14.9471 20.0981 15.0205 20.0793 15.0946 20.0825C15.1687 20.0857 15.2401 20.1109 15.3 20.1547C15.3598 20.1986 15.4052 20.2592 15.4306 20.3289C15.4475 20.3752 15.455 20.4243 15.4529 20.4735C15.4507 20.5227 15.4389 20.571 15.4181 20.6157C15.3973 20.6603 15.3679 20.7004 15.3316 20.7337C15.2953 20.767 15.2527 20.7928 15.2065 20.8096V20.8095ZM16.6877 20.1189C16.6235 20.156 16.5497 20.1732 16.4757 20.1683C16.4017 20.1635 16.3308 20.1368 16.2719 20.0917C16.2131 20.0465 16.1689 19.9849 16.1451 19.9147C16.1213 19.8445 16.1188 19.7687 16.138 19.6971C16.1572 19.6255 16.1972 19.5611 16.2529 19.5122C16.3087 19.4633 16.3777 19.432 16.4512 19.4224C16.5248 19.4127 16.5995 19.425 16.6661 19.4578C16.7326 19.4906 16.7879 19.5424 16.825 19.6067C16.8496 19.6493 16.8656 19.6964 16.872 19.7452C16.8784 19.7941 16.8751 19.8437 16.8624 19.8913C16.8496 19.9389 16.8276 19.9835 16.7976 20.0225C16.7676 20.0616 16.7302 20.0944 16.6875 20.119L16.6877 20.1189ZM18.0265 19.1816C17.9696 19.2293 17.9 19.259 17.8262 19.2671C17.7525 19.2752 17.6781 19.2612 17.6123 19.227C17.5465 19.1927 17.4923 19.1397 17.4566 19.0747C17.421 19.0097 17.4054 18.9355 17.4118 18.8617C17.4183 18.7878 17.4465 18.7175 17.4929 18.6596C17.5394 18.6018 17.6019 18.559 17.6726 18.5367C17.7434 18.5144 17.8191 18.5135 17.8903 18.5343C17.9615 18.555 18.025 18.5964 18.0727 18.6533C18.1043 18.691 18.1282 18.7346 18.143 18.7816C18.1578 18.8286 18.1632 18.878 18.1589 18.9271C18.1546 18.9761 18.1407 19.0239 18.1179 19.0676C18.0952 19.1112 18.064 19.15 18.0263 19.1817L18.0265 19.1816ZM19.1817 18.0262C19.134 18.0831 19.0706 18.1245 18.9994 18.1452C18.9282 18.166 18.8524 18.1651 18.7817 18.1428C18.7109 18.1205 18.6484 18.0778 18.602 18.0199C18.5555 17.9621 18.5273 17.8918 18.5209 17.8179C18.5144 17.744 18.53 17.6699 18.5656 17.6048C18.6013 17.5398 18.6555 17.4868 18.7213 17.4526C18.787 17.4183 18.8615 17.4044 18.9352 17.4124C19.009 17.4205 19.0786 17.4502 19.1354 17.4979C19.1732 17.5296 19.2043 17.5683 19.227 17.612C19.2498 17.6557 19.2637 17.7034 19.268 17.7525C19.2723 17.8016 19.2669 17.851 19.2521 17.898C19.2373 17.9449 19.2133 17.9885 19.1817 18.0262ZM20.119 16.6875C20.0819 16.7517 20.0266 16.8035 19.9601 16.8363C19.8936 16.8691 19.8188 16.8815 19.7453 16.8718C19.6718 16.8621 19.6027 16.8308 19.547 16.7819C19.4912 16.733 19.4512 16.6687 19.432 16.5971C19.4128 16.5254 19.4153 16.4497 19.4391 16.3795C19.463 16.3092 19.5071 16.2476 19.566 16.2025C19.6248 16.1573 19.6957 16.1307 19.7697 16.1258C19.8437 16.121 19.9175 16.1382 19.9817 16.1752C20.0679 16.225 20.1307 16.3069 20.1565 16.4029C20.1822 16.499 20.1687 16.6014 20.119 16.6875ZM20.8096 15.2062C20.7843 15.2759 20.7388 15.3366 20.679 15.3804C20.6192 15.4243 20.5477 15.4494 20.4736 15.4526C20.3995 15.4559 20.3261 15.4371 20.2627 15.3986C20.1993 15.3601 20.1487 15.3037 20.1174 15.2365C20.086 15.1692 20.0753 15.0942 20.0866 15.0209C20.0979 14.9476 20.1307 14.8793 20.1808 14.8246C20.2309 14.7699 20.2961 14.7314 20.3681 14.7137C20.4402 14.6961 20.5158 14.7002 20.5855 14.7256C20.6318 14.7425 20.6744 14.7683 20.7107 14.8015C20.747 14.8348 20.7764 14.8749 20.7972 14.9196C20.818 14.9642 20.8298 15.0126 20.832 15.0618C20.8341 15.111 20.8265 15.1602 20.8096 15.2064V15.2062ZM20.7982 13.9319C20.7251 13.919 20.6575 13.8848 20.604 13.8335C20.5504 13.7822 20.5132 13.7162 20.4972 13.6438C20.4811 13.5714 20.4869 13.4958 20.5138 13.4267C20.5407 13.3576 20.5875 13.298 20.6482 13.2554C20.709 13.2129 20.781 13.1893 20.8551 13.1877C20.9293 13.1861 21.0023 13.2065 21.0648 13.2464C21.1274 13.2862 21.1767 13.3437 21.2065 13.4116C21.2364 13.4795 21.2455 13.5547 21.2326 13.6278C21.2241 13.6763 21.2061 13.7226 21.1796 13.7642C21.1532 13.8057 21.1188 13.8417 21.0784 13.8699C21.0381 13.8982 20.9926 13.9182 20.9445 13.9289C20.8964 13.9396 20.8467 13.9407 20.7982 13.9321V13.9319ZM21 12.375C20.9259 12.375 20.8534 12.353 20.7917 12.3118C20.73 12.2706 20.682 12.212 20.6536 12.1435C20.6252 12.075 20.6178 11.9996 20.6322 11.9268C20.6467 11.8541 20.6824 11.7873 20.7349 11.7348C20.7873 11.6824 20.8541 11.6467 20.9269 11.6322C20.9996 11.6177 21.075 11.6252 21.1435 11.6535C21.212 11.6819 21.2706 11.73 21.3118 11.7917C21.353 11.8533 21.375 11.9258 21.375 12C21.375 12.0995 21.3355 12.1948 21.2652 12.2652C21.1949 12.3355 21.0995 12.375 21 12.375Z" fill="white"/>
<path d="M12 4.875C10.5908 4.875 9.21326 5.29287 8.04156 6.07578C6.86985 6.85868 5.95663 7.97146 5.41735 9.27338C4.87808 10.5753 4.73698 12.0079 5.0119 13.39C5.28682 14.7721 5.96541 16.0417 6.96186 17.0381C7.95831 18.0346 9.22786 18.7132 10.61 18.9881C11.9921 19.263 13.4247 19.1219 14.7266 18.5826C16.0285 18.0434 17.1413 17.1301 17.9242 15.9584C18.7071 14.7867 19.125 13.4092 19.125 12C19.1228 10.111 18.3715 8.29996 17.0358 6.96423C15.7 5.6285 13.889 4.87714 12 4.875V4.875ZM14.5715 12.193L12.3215 15.943C12.2882 15.9985 12.2411 16.0444 12.1847 16.0763C12.1284 16.1082 12.0647 16.125 12 16.125C11.9352 16.125 11.8716 16.1082 11.8153 16.0763C11.7589 16.0444 11.7118 15.9985 11.6785 15.943L9.42847 12.193C9.3956 12.134 9.37835 12.0675 9.37835 12C9.37835 11.9325 9.3956 11.866 9.42847 11.807L11.6785 8.05702C11.7143 8.00483 11.7623 7.96215 11.8183 7.93266C11.8743 7.90317 11.9367 7.88776 12 7.88776C12.0633 7.88776 12.1257 7.90317 12.1817 7.93266C12.2377 7.96215 12.2857 8.00483 12.3215 8.05702L14.5715 11.807C14.5849 11.8334 14.5965 11.8606 14.6065 11.8885C14.6355 11.9906 14.6229 12.1001 14.5715 12.193Z" fill="white"/>
</svg>
