<svg width="24" height="24" viewBox="0 0 24 24" fill="none" xmlns="http://www.w3.org/2000/svg">
<path d="M10.3122 11.7923L12.0001 12.3548L13.6879 11.7923L12.0001 8.97864L10.3122 11.7923Z" fill="white"/>
<path d="M12 13.1249C12.0029 13.1649 10.6339 12.683 10.5929 12.676L12 15.0211L13.407 12.676C13.3669 12.6824 11.9962 13.1654 12 13.1249Z" fill="white"/>
<path d="M12 1.875C9.9975 1.875 8.03993 2.46882 6.37489 3.58137C4.70984 4.69392 3.41209 6.27523 2.64575 8.12533C1.87942 9.97543 1.67891 12.0112 2.06958 13.9753C2.46026 15.9393 3.42457 17.7435 4.84058 19.1595C6.25659 20.5755 8.06069 21.5398 10.0247 21.9305C11.9888 22.3211 14.0246 22.1206 15.8747 21.3543C17.7248 20.5879 19.3061 19.2902 20.4187 17.6251C21.5312 15.9601 22.125 14.0025 22.125 12C22.122 9.31562 21.0543 6.74206 19.1561 4.84392C17.258 2.94578 14.6844 1.87806 12 1.875V1.875ZM21.2325 10.3721C21.2454 10.4451 21.2363 10.5203 21.2065 10.5882C21.1766 10.6561 21.1273 10.7136 21.0647 10.7534C21.0022 10.7933 20.9292 10.8137 20.855 10.8121C20.7809 10.8104 20.7089 10.7869 20.6481 10.7443C20.5874 10.7018 20.5406 10.6422 20.5137 10.5731C20.4868 10.5039 20.4811 10.4284 20.4971 10.356C20.5132 10.2836 20.5503 10.2176 20.6039 10.1663C20.6575 10.115 20.7251 10.0807 20.7981 10.0679C20.8466 10.0593 20.8963 10.0604 20.9444 10.071C20.9925 10.0817 21.038 10.1017 21.0783 10.13C21.1187 10.1582 21.153 10.1941 21.1795 10.2357C21.206 10.2772 21.224 10.3235 21.2325 10.3721ZM20.3288 8.56943C20.3985 8.54406 20.4741 8.53993 20.5462 8.55756C20.6182 8.57519 20.6834 8.61379 20.7335 8.66847C20.7836 8.72316 20.8164 8.79147 20.8277 8.86477C20.839 8.93808 20.8282 9.01308 20.7969 9.0803C20.7656 9.14752 20.715 9.20393 20.6516 9.24241C20.5882 9.28088 20.5148 9.29969 20.4407 9.29645C20.3666 9.29322 20.2951 9.26808 20.2353 9.22422C20.1755 9.18037 20.13 9.11976 20.1046 9.05006C20.0878 9.00377 20.0803 8.95462 20.0824 8.90541C20.0846 8.8562 20.0964 8.8079 20.1173 8.76326C20.1381 8.71863 20.1675 8.67854 20.2039 8.64528C20.2402 8.61202 20.2827 8.58625 20.329 8.56943H20.3288ZM19.6065 7.17525C19.6708 7.13816 19.7446 7.12096 19.8186 7.12581C19.8926 7.13065 19.9635 7.15734 20.0223 7.20249C20.0812 7.24764 20.1253 7.30922 20.1491 7.37946C20.173 7.44969 20.1755 7.52541 20.1563 7.59706C20.1371 7.6687 20.0971 7.73304 20.0413 7.78194C19.9855 7.83084 19.9165 7.86211 19.843 7.87179C19.7695 7.88148 19.6947 7.86913 19.6282 7.83633C19.5617 7.80353 19.5064 7.75173 19.4693 7.6875C19.4447 7.64484 19.4287 7.59775 19.4223 7.54892C19.4159 7.50008 19.4192 7.45047 19.4319 7.4029C19.4447 7.35533 19.4667 7.31074 19.4967 7.27168C19.5267 7.23262 19.5641 7.19986 19.6068 7.17525H19.6065ZM19.875 12C19.875 13.5575 19.4132 15.0801 18.5479 16.3751C17.6825 17.6702 16.4526 18.6795 15.0137 19.2756C13.5747 19.8716 11.9913 20.0275 10.4637 19.7237C8.9361 19.4198 7.53291 18.6698 6.43157 17.5685C5.33023 16.4671 4.58021 15.0639 4.27635 13.5363C3.97249 12.0087 4.12844 10.4253 4.72448 8.98637C5.32052 7.5474 6.32988 6.31749 7.62492 5.45218C8.91996 4.58686 10.4425 4.125 12 4.125C14.0879 4.1274 16.0895 4.95786 17.5658 6.43419C19.0422 7.91052 19.8726 9.91216 19.875 12V12ZM18.6534 5.92766C18.7102 5.87998 18.7798 5.85022 18.8536 5.84214C18.9273 5.83407 19.0018 5.84803 19.0676 5.88228C19.1334 5.91652 19.1875 5.9695 19.2232 6.03453C19.2589 6.09955 19.2745 6.1737 19.268 6.24758C19.2615 6.32147 19.2333 6.39178 19.1869 6.44963C19.1405 6.50747 19.0779 6.55025 19.0072 6.57256C18.9365 6.59486 18.8607 6.59569 18.7895 6.57493C18.7183 6.55418 18.6548 6.51278 18.6072 6.45596C18.5432 6.37978 18.5122 6.28132 18.5208 6.18224C18.5295 6.08317 18.5772 5.99159 18.6534 5.92766V5.92766ZM17.4979 4.86454C17.5456 4.80773 17.609 4.76633 17.6802 4.74558C17.7514 4.72483 17.8272 4.72566 17.8979 4.74797C17.9686 4.77028 18.0312 4.81306 18.0776 4.8709C18.124 4.92875 18.1522 4.99906 18.1587 5.07294C18.1652 5.14683 18.1496 5.22097 18.1139 5.28599C18.0782 5.35101 18.0241 5.404 17.9583 5.43824C17.8925 5.47249 17.818 5.48645 17.7443 5.47838C17.6706 5.4703 17.6009 5.44055 17.5441 5.39287C17.5063 5.36122 17.4752 5.32244 17.4525 5.27876C17.4297 5.23507 17.4158 5.18734 17.4115 5.13828C17.4073 5.08921 17.4127 5.03979 17.4275 4.99282C17.4423 4.94585 17.4662 4.90226 17.4979 4.86454ZM16.1753 4.01827C16.2124 3.95404 16.2677 3.90225 16.3342 3.86945C16.4007 3.83664 16.4755 3.8243 16.549 3.83398C16.6225 3.84366 16.6915 3.87493 16.7473 3.92383C16.8031 3.97274 16.8431 4.03708 16.8623 4.10872C16.8815 4.18036 16.879 4.25609 16.8551 4.32632C16.8313 4.39655 16.7872 4.45814 16.7283 4.50328C16.6695 4.54843 16.5986 4.57512 16.5246 4.57997C16.4506 4.58482 16.3768 4.56761 16.3125 4.53052C16.2264 4.4808 16.1636 4.39889 16.1378 4.30282C16.1121 4.20676 16.1256 4.1044 16.1753 4.01827ZM14.7258 3.41453C14.7512 3.34483 14.7967 3.28423 14.8565 3.24038C14.9163 3.19653 14.9878 3.1714 15.0619 3.16816C15.136 3.16493 15.2094 3.18374 15.2728 3.22222C15.3362 3.2607 15.3867 3.31711 15.4181 3.38433C15.4494 3.45155 15.4601 3.52655 15.4488 3.59985C15.4376 3.67315 15.4048 3.74147 15.3547 3.79615C15.3046 3.85083 15.2394 3.88943 15.1674 3.90706C15.0953 3.92469 15.0197 3.92056 14.95 3.8952C14.9037 3.87836 14.8612 3.85256 14.8249 3.81929C14.7885 3.78601 14.7591 3.74591 14.7383 3.70127C14.7175 3.65663 14.7057 3.60833 14.7036 3.55912C14.7014 3.50992 14.709 3.46077 14.7258 3.41449V3.41453ZM13.628 2.7675C13.701 2.78038 13.7686 2.81463 13.8222 2.86592C13.8758 2.91721 13.9129 2.98323 13.929 3.05564C13.945 3.12805 13.9392 3.20359 13.9124 3.27272C13.8855 3.34184 13.8387 3.40144 13.7779 3.44398C13.7172 3.48652 13.6452 3.51009 13.571 3.51171C13.4969 3.51333 13.4239 3.49293 13.3614 3.45308C13.2988 3.41323 13.2495 3.35573 13.2196 3.28784C13.1897 3.21996 13.1807 3.14474 13.1935 3.0717C13.2021 3.0232 13.2201 2.97686 13.2466 2.93532C13.273 2.89379 13.3074 2.85787 13.3478 2.82962C13.3881 2.80137 13.4336 2.78135 13.4817 2.77069C13.5298 2.76003 13.5795 2.75895 13.628 2.7675V2.7675ZM12 2.625C12.0742 2.625 12.1467 2.64699 12.2084 2.6882C12.27 2.7294 12.3181 2.78797 12.3465 2.85649C12.3749 2.92502 12.3823 3.00042 12.3678 3.07316C12.3534 3.1459 12.3176 3.21272 12.2652 3.26516C12.2128 3.31761 12.1459 3.35333 12.0732 3.36779C12.0005 3.38226 11.9251 3.37484 11.8565 3.34645C11.788 3.31807 11.7294 3.27001 11.6882 3.20834C11.647 3.14667 11.625 3.07417 11.625 3C11.625 2.90054 11.6645 2.80516 11.7349 2.73484C11.8052 2.66451 11.9006 2.625 12 2.625ZM10.3721 2.7675C10.4451 2.75462 10.5203 2.76368 10.5882 2.79355C10.6561 2.82342 10.7136 2.87275 10.7535 2.9353C10.7933 2.99785 10.8137 3.07081 10.8121 3.14496C10.8105 3.21911 10.787 3.29112 10.7444 3.35187C10.7019 3.41263 10.6423 3.45941 10.5732 3.4863C10.504 3.51318 10.4285 3.51896 10.3561 3.50291C10.2837 3.48687 10.2176 3.44971 10.1663 3.39613C10.1151 3.34256 10.0808 3.27498 10.0679 3.20194C10.0594 3.15344 10.0605 3.10373 10.0711 3.05565C10.0818 3.00758 10.1018 2.96207 10.13 2.92172C10.1583 2.88138 10.1942 2.847 10.2357 2.82054C10.2772 2.79408 10.3236 2.77605 10.3721 2.7675ZM8.79379 3.19039C8.86348 3.16502 8.93913 3.16089 9.01117 3.17852C9.08322 3.19615 9.14841 3.23475 9.19852 3.28943C9.24862 3.34412 9.28139 3.41243 9.29267 3.48574C9.30395 3.55904 9.29324 3.63405 9.2619 3.70126C9.23055 3.76848 9.17998 3.8249 9.11657 3.86337C9.05316 3.90185 8.97977 3.92065 8.90567 3.91742C8.83157 3.91418 8.7601 3.88904 8.70029 3.84519C8.64048 3.80133 8.59501 3.74072 8.56965 3.67103C8.55281 3.62475 8.54524 3.57561 8.54739 3.52641C8.54954 3.47721 8.56136 3.42892 8.58217 3.38429C8.60299 3.33965 8.63239 3.29956 8.66869 3.26629C8.705 3.23302 8.74751 3.20723 8.79379 3.19039V3.19039ZM7.31254 3.88102C7.37677 3.84394 7.45055 3.82673 7.52456 3.83158C7.59857 3.83643 7.66948 3.86312 7.72832 3.90826C7.78717 3.95341 7.8313 4.015 7.85514 4.08523C7.87899 4.15546 7.88147 4.23119 7.86227 4.30283C7.84307 4.37447 7.80307 4.43881 7.7473 4.48772C7.69154 4.53662 7.62253 4.56789 7.54899 4.57757C7.47546 4.58725 7.40071 4.57491 7.33419 4.5421C7.26767 4.5093 7.21237 4.45751 7.17529 4.39327C7.12556 4.30715 7.11208 4.20479 7.13782 4.10873C7.16356 4.01266 7.22641 3.93075 7.31254 3.88102ZM5.97379 4.81852C6.0306 4.77085 6.10028 4.74109 6.174 4.73301C6.24773 4.72493 6.3222 4.73889 6.38799 4.77314C6.45378 4.80738 6.50794 4.86037 6.54361 4.92539C6.57929 4.99042 6.59488 5.06456 6.58842 5.13845C6.58196 5.21233 6.55374 5.28264 6.50731 5.34049C6.46089 5.39833 6.39836 5.44111 6.32762 5.46342C6.25689 5.48572 6.18113 5.48655 6.10992 5.4658C6.03871 5.44504 5.97526 5.40364 5.92759 5.34682C5.8959 5.3091 5.87196 5.2655 5.85714 5.21851C5.84231 5.17153 5.83689 5.12209 5.84118 5.07301C5.84547 5.02393 5.85939 4.97618 5.88214 4.93248C5.9049 4.88878 5.93604 4.85 5.97379 4.81834V4.81852ZM4.81837 5.97375C4.86604 5.91693 4.92949 5.87552 5.0007 5.85477C5.0719 5.83401 5.14766 5.83483 5.2184 5.85713C5.28914 5.87943 5.35167 5.92221 5.3981 5.98005C5.44453 6.03789 5.47276 6.1082 5.47922 6.18208C5.48569 6.25597 5.4701 6.33012 5.43443 6.39514C5.39876 6.46017 5.3446 6.51316 5.27882 6.54741C5.21303 6.58165 5.13856 6.59563 5.06483 6.58755C4.99111 6.57948 4.92143 6.54972 4.86461 6.50205C4.78842 6.43812 4.74075 6.34655 4.73208 6.24748C4.72341 6.1484 4.75445 6.04994 4.81837 5.97375V5.97375ZM3.88087 7.3125C3.91796 7.24827 3.97325 7.19647 4.03977 7.16367C4.10629 7.13087 4.18105 7.11852 4.25458 7.12821C4.32812 7.13789 4.39713 7.16916 4.45289 7.21806C4.50865 7.26696 4.54866 7.3313 4.56786 7.40294C4.58705 7.47459 4.58457 7.55031 4.56073 7.62054C4.53689 7.69078 4.49276 7.75236 4.43391 7.79751C4.37507 7.84266 4.30416 7.86935 4.23015 7.87419C4.15614 7.87904 4.08235 7.86184 4.01812 7.82475C3.93203 7.77499 3.86922 7.69307 3.84352 7.59701C3.81781 7.50095 3.83132 7.39861 3.88106 7.3125H3.88087ZM3.19042 8.79375C3.21579 8.72405 3.26126 8.66345 3.32107 8.61959C3.38088 8.57573 3.45236 8.5506 3.52646 8.54737C3.60056 8.54414 3.67395 8.56295 3.73736 8.60143C3.80076 8.63991 3.85134 8.69632 3.88268 8.76355C3.91402 8.83077 3.92473 8.90577 3.91344 8.97908C3.90215 9.05238 3.86938 9.12069 3.81927 9.17537C3.76916 9.23005 3.70396 9.26865 3.63191 9.28627C3.55987 9.3039 3.48422 9.29976 3.41452 9.27439C3.32107 9.24037 3.24496 9.17062 3.20293 9.08048C3.16091 8.99034 3.15641 8.8872 3.19042 8.79375ZM3.2019 10.068C3.27494 10.0809 3.34252 10.1152 3.39609 10.1665C3.44966 10.2177 3.48683 10.2838 3.50288 10.3562C3.51893 10.4286 3.51315 10.5041 3.48627 10.5733C3.45939 10.6424 3.41261 10.702 3.35186 10.7445C3.29111 10.7871 3.2191 10.8106 3.14495 10.8122C3.0708 10.8139 2.99784 10.7935 2.93529 10.7536C2.87273 10.7138 2.8234 10.6563 2.79353 10.5884C2.76366 10.5205 2.75458 10.4453 2.76746 10.3722C2.77599 10.3237 2.79399 10.2774 2.82044 10.2358C2.84689 10.1942 2.88127 10.1583 2.92162 10.13C2.96196 10.1018 3.00748 10.0817 3.05557 10.0711C3.10366 10.0604 3.15338 10.0593 3.2019 10.0679V10.068ZM2.62504 12C2.62504 11.9258 2.64703 11.8533 2.68823 11.7917C2.72944 11.73 2.78801 11.6819 2.85653 11.6535C2.92505 11.6252 3.00045 11.6177 3.07319 11.6322C3.14594 11.6467 3.21276 11.6824 3.2652 11.7348C3.31764 11.7873 3.35336 11.8541 3.36783 11.9268C3.3823 11.9996 3.37487 12.075 3.34649 12.1435C3.31811 12.212 3.27004 12.2706 3.20837 12.3118C3.14671 12.353 3.0742 12.375 3.00004 12.375C2.90058 12.375 2.8052 12.3355 2.73487 12.2652C2.66454 12.1948 2.62504 12.0995 2.62504 12V12ZM2.76754 13.628C2.75465 13.5549 2.76372 13.4797 2.79359 13.4118C2.82345 13.3439 2.87278 13.2864 2.93533 13.2466C2.99788 13.2067 3.07085 13.1863 3.145 13.1879C3.21915 13.1895 3.29115 13.2131 3.35191 13.2556C3.41267 13.2982 3.45945 13.3578 3.48633 13.4269C3.51322 13.496 3.519 13.5715 3.50295 13.644C3.4869 13.7164 3.44974 13.7824 3.39617 13.8337C3.34259 13.885 3.27501 13.9192 3.20197 13.9321C3.15348 13.9407 3.10377 13.9396 3.05569 13.9289C3.00761 13.9183 2.9621 13.8983 2.92176 13.87C2.88142 13.8418 2.84704 13.8058 2.82057 13.7643C2.79411 13.7228 2.77609 13.6764 2.76754 13.628ZM3.67129 15.4305C3.60159 15.4559 3.52593 15.46 3.45389 15.4424C3.38185 15.4248 3.31665 15.3862 3.26654 15.3315C3.21643 15.2768 3.18367 15.2085 3.17239 15.1352C3.16111 15.0619 3.17182 14.9869 3.20317 14.9197C3.23451 14.8524 3.28509 14.796 3.3485 14.7575C3.41192 14.7191 3.48531 14.7003 3.55941 14.7035C3.63351 14.7068 3.70498 14.7319 3.76479 14.7758C3.8246 14.8196 3.87006 14.8802 3.89542 14.9499C3.91225 14.9962 3.9198 15.0454 3.91763 15.0946C3.91547 15.1438 3.90363 15.1921 3.88279 15.2367C3.86196 15.2813 3.83254 15.3214 3.79621 15.3547C3.75988 15.3879 3.71735 15.4137 3.67106 15.4305H3.67129ZM4.39354 16.8248C4.3293 16.8618 4.25552 16.879 4.18151 16.8742C4.1075 16.8693 4.03659 16.8427 3.97775 16.7975C3.9189 16.7524 3.87477 16.6908 3.85093 16.6205C3.82709 16.5503 3.82461 16.4746 3.8438 16.4029C3.863 16.3313 3.903 16.267 3.95877 16.2181C4.01453 16.1692 4.08354 16.1379 4.15708 16.1282C4.23061 16.1185 4.30536 16.1309 4.37188 16.1637C4.4384 16.1965 4.4937 16.2483 4.53079 16.3125C4.5554 16.3552 4.57137 16.4023 4.57778 16.4511C4.58419 16.4999 4.58092 16.5495 4.56815 16.5971C4.55539 16.6447 4.53337 16.6893 4.50337 16.7283C4.47337 16.7674 4.43597 16.8001 4.39331 16.8248H4.39354ZM5.34694 18.0723C5.29012 18.12 5.22045 18.1498 5.14672 18.1579C5.07299 18.1659 4.99852 18.152 4.93273 18.1177C4.86694 18.0835 4.81278 18.0305 4.77711 17.9655C4.74143 17.9004 4.72584 17.8263 4.7323 17.7524C4.73876 17.6785 4.76699 17.6082 4.81341 17.5504C4.85983 17.4925 4.92236 17.4497 4.9931 17.4274C5.06383 17.4051 5.13959 17.4043 5.2108 17.4251C5.28201 17.4458 5.34546 17.4872 5.39314 17.544C5.42478 17.5818 5.44867 17.6254 5.46346 17.6723C5.47826 17.7193 5.48365 17.7687 5.47934 17.8178C5.47503 17.8669 5.4611 17.9146 5.43834 17.9583C5.41558 18.0019 5.38445 18.0407 5.34671 18.0723H5.34694ZM6.50242 19.1354C6.45475 19.1922 6.39129 19.2336 6.32009 19.2544C6.24888 19.2752 6.17312 19.2743 6.10239 19.252C6.03165 19.2297 5.96912 19.1869 5.92269 19.1291C5.87627 19.0712 5.84805 19.0009 5.84158 18.927C5.83512 18.8532 5.85072 18.779 5.88639 18.714C5.92207 18.649 5.97623 18.596 6.04202 18.5617C6.10781 18.5275 6.18228 18.5135 6.25601 18.5216C6.32973 18.5297 6.39941 18.5594 6.45622 18.6071C6.53237 18.6711 6.57999 18.7627 6.58861 18.8618C6.59724 18.9608 6.56615 19.0593 6.5022 19.1354H6.50242ZM7.82501 19.9817C7.78793 20.046 7.73263 20.0978 7.66611 20.1306C7.59959 20.1634 7.52484 20.1757 7.4513 20.166C7.37777 20.1563 7.30875 20.1251 7.25299 20.0762C7.19723 20.0273 7.15722 19.9629 7.13803 19.8913C7.11883 19.8196 7.12131 19.7439 7.14515 19.6737C7.16899 19.6034 7.21313 19.5419 7.27197 19.4967C7.33081 19.4516 7.40172 19.4249 7.47573 19.42C7.54974 19.4152 7.62353 19.4324 7.68776 19.4695C7.77385 19.5192 7.83665 19.6012 7.86234 19.6972C7.88804 19.7933 7.87453 19.8956 7.82478 19.9817H7.82501ZM9.27446 20.5855C9.24909 20.6552 9.20362 20.7158 9.14381 20.7596C9.084 20.8035 9.01252 20.8286 8.93843 20.8318C8.86433 20.8351 8.79094 20.8163 8.72754 20.7778C8.66413 20.7393 8.61356 20.6829 8.58222 20.6157C8.55087 20.5485 8.54017 20.4735 8.55145 20.4001C8.56273 20.3268 8.59549 20.2585 8.6456 20.2039C8.6957 20.1492 8.7609 20.1106 8.83294 20.0929C8.90498 20.0753 8.98063 20.0794 9.05032 20.1048C9.14376 20.1389 9.21984 20.2086 9.26183 20.2988C9.30382 20.3889 9.30828 20.4921 9.27423 20.5855L9.27446 20.5855ZM10.3721 21.2325C10.299 21.2196 10.2315 21.1854 10.1779 21.1341C10.1243 21.0828 10.0872 21.0168 10.0711 20.9444C10.0551 20.8719 10.0608 20.7964 10.0877 20.7273C10.1146 20.6582 10.1614 20.5986 10.2221 20.556C10.2829 20.5135 10.3549 20.4899 10.429 20.4883C10.5032 20.4867 10.5761 20.5071 10.6387 20.5469C10.7012 20.5868 10.7506 20.6443 10.7805 20.7122C10.8103 20.78 10.8194 20.8553 10.8065 20.9283C10.798 20.9768 10.78 21.0231 10.7535 21.0647C10.727 21.1062 10.6927 21.1421 10.6523 21.1704C10.612 21.1986 10.5665 21.2187 10.5184 21.2293C10.4703 21.24 10.4206 21.2411 10.3721 21.2325ZM12 21.375C11.9259 21.375 11.8534 21.353 11.7917 21.3118C11.73 21.2706 11.682 21.212 11.6536 21.1435C11.6252 21.075 11.6178 20.9996 11.6322 20.9268C11.6467 20.8541 11.6824 20.7873 11.7349 20.7348C11.7873 20.6824 11.8541 20.6467 11.9269 20.6322C11.9996 20.6177 12.075 20.6252 12.1435 20.6535C12.2121 20.6819 12.2706 20.73 12.3118 20.7917C12.353 20.8533 12.375 20.9258 12.375 21C12.375 21.0995 12.3355 21.1948 12.2652 21.2652C12.1949 21.3355 12.0995 21.375 12 21.375ZM13.628 21.2325C13.5549 21.2454 13.4797 21.2363 13.4118 21.2064C13.3439 21.1766 13.2864 21.1273 13.2466 21.0647C13.2067 21.0022 13.1863 20.9292 13.1879 20.855C13.1896 20.7809 13.2131 20.7089 13.2557 20.6481C13.2982 20.5874 13.3578 20.5406 13.4269 20.5137C13.496 20.4868 13.5716 20.481 13.644 20.4971C13.7164 20.5131 13.7824 20.5503 13.8337 20.6039C13.885 20.6574 13.9193 20.725 13.9321 20.7981C13.9407 20.8466 13.9396 20.8963 13.929 20.9443C13.9183 20.9924 13.8983 21.0379 13.87 21.0783C13.8418 21.1186 13.8059 21.153 13.7644 21.1795C13.7228 21.2059 13.6765 21.2239 13.628 21.2325ZM15.2065 20.8095C15.1368 20.8349 15.0611 20.839 14.9891 20.8214C14.917 20.8038 14.8518 20.7652 14.8017 20.7105C14.7516 20.6558 14.7189 20.5875 14.7076 20.5142C14.6963 20.4409 14.707 20.3659 14.7384 20.2987C14.7697 20.2314 14.8203 20.175 14.8837 20.1366C14.9471 20.0981 15.0205 20.0793 15.0946 20.0825C15.1687 20.0857 15.2402 20.1109 15.3 20.1547C15.3598 20.1986 15.4052 20.2592 15.4306 20.3289C15.4475 20.3752 15.455 20.4243 15.4529 20.4735C15.4507 20.5227 15.4389 20.571 15.4181 20.6157C15.3973 20.6603 15.3679 20.7004 15.3316 20.7337C15.2953 20.767 15.2528 20.7928 15.2065 20.8096V20.8095ZM16.6877 20.1189C16.6235 20.156 16.5497 20.1732 16.4757 20.1683C16.4017 20.1635 16.3308 20.1368 16.2719 20.0917C16.2131 20.0465 16.169 19.9849 16.1451 19.9147C16.1213 19.8445 16.1188 19.7687 16.138 19.6971C16.1572 19.6255 16.1972 19.5611 16.253 19.5122C16.3087 19.4633 16.3777 19.432 16.4513 19.4224C16.5248 19.4127 16.5996 19.425 16.6661 19.4578C16.7326 19.4906 16.7879 19.5424 16.825 19.6067C16.8496 19.6493 16.8656 19.6964 16.872 19.7452C16.8784 19.7941 16.8752 19.8437 16.8624 19.8913C16.8496 19.9389 16.8276 19.9835 16.7976 20.0225C16.7676 20.0616 16.7302 20.0944 16.6875 20.119L16.6877 20.1189ZM18.0265 19.1816C17.9697 19.2293 17.9 19.259 17.8263 19.2671C17.7525 19.2752 17.6781 19.2612 17.6123 19.227C17.5465 19.1927 17.4923 19.1397 17.4567 19.0747C17.421 19.0097 17.4054 18.9355 17.4119 18.8617C17.4183 18.7878 17.4465 18.7175 17.493 18.6596C17.5394 18.6018 17.6019 18.559 17.6726 18.5367C17.7434 18.5144 17.8191 18.5135 17.8903 18.5343C17.9615 18.555 18.025 18.5964 18.0727 18.6533C18.1043 18.691 18.1282 18.7346 18.1431 18.7816C18.1579 18.8286 18.1633 18.878 18.159 18.9271C18.1546 18.9761 18.1407 19.0239 18.1179 19.0676C18.0952 19.1112 18.064 19.15 18.0263 19.1817L18.0265 19.1816ZM19.1817 18.0262C19.134 18.0831 19.0706 18.1245 18.9994 18.1452C18.9282 18.166 18.8524 18.1651 18.7817 18.1428C18.7109 18.1205 18.6484 18.0778 18.602 18.0199C18.5556 17.9621 18.5273 17.8918 18.5209 17.8179C18.5144 17.744 18.53 17.6699 18.5657 17.6048C18.6013 17.5398 18.6555 17.4868 18.7213 17.4526C18.787 17.4183 18.8615 17.4044 18.9352 17.4124C19.009 17.4205 19.0786 17.4502 19.1355 17.4979C19.1732 17.5296 19.2043 17.5683 19.2271 17.612C19.2498 17.6557 19.2637 17.7034 19.268 17.7525C19.2723 17.8016 19.2669 17.851 19.2521 17.898C19.2373 17.9449 19.2134 17.9885 19.1817 18.0262ZM20.119 16.6875C20.0819 16.7517 20.0266 16.8035 19.9601 16.8363C19.8936 16.8691 19.8188 16.8815 19.7453 16.8718C19.6718 16.8621 19.6028 16.8308 19.547 16.7819C19.4912 16.733 19.4512 16.6687 19.432 16.5971C19.4128 16.5254 19.4153 16.4497 19.4392 16.3795C19.463 16.3092 19.5071 16.2476 19.566 16.2025C19.6248 16.1573 19.6957 16.1307 19.7697 16.1258C19.8437 16.121 19.9175 16.1382 19.9818 16.1752C20.0679 16.225 20.1307 16.3069 20.1565 16.4029C20.1822 16.499 20.1687 16.6014 20.119 16.6875ZM20.8096 15.2062C20.7843 15.2759 20.7388 15.3366 20.679 15.3804C20.6192 15.4243 20.5477 15.4494 20.4736 15.4526C20.3995 15.4559 20.3261 15.4371 20.2627 15.3986C20.1993 15.3601 20.1487 15.3037 20.1174 15.2365C20.086 15.1692 20.0753 15.0942 20.0866 15.0209C20.0979 14.9476 20.1307 14.8793 20.1808 14.8246C20.2309 14.7699 20.2961 14.7314 20.3682 14.7137C20.4402 14.6961 20.5159 14.7002 20.5855 14.7256C20.6318 14.7425 20.6744 14.7683 20.7107 14.8015C20.747 14.8348 20.7764 14.8749 20.7972 14.9196C20.818 14.9642 20.8298 15.0126 20.832 15.0618C20.8341 15.111 20.8265 15.1602 20.8096 15.2064V15.2062ZM20.7982 13.9319C20.7251 13.919 20.6576 13.8848 20.604 13.8335C20.5504 13.7822 20.5132 13.7162 20.4972 13.6438C20.4811 13.5714 20.4869 13.4958 20.5138 13.4267C20.5407 13.3576 20.5875 13.298 20.6482 13.2554C20.709 13.2129 20.781 13.1893 20.8551 13.1877C20.9293 13.1861 21.0023 13.2065 21.0648 13.2464C21.1274 13.2862 21.1767 13.3437 21.2066 13.4116C21.2364 13.4795 21.2455 13.5547 21.2326 13.6278C21.2241 13.6763 21.2061 13.7226 21.1796 13.7642C21.1532 13.8057 21.1188 13.8417 21.0784 13.8699C21.0381 13.8982 20.9926 13.9182 20.9445 13.9289C20.8964 13.9396 20.8467 13.9407 20.7982 13.9321V13.9319ZM21 12.375C20.9259 12.375 20.8534 12.353 20.7917 12.3118C20.73 12.2706 20.682 12.212 20.6536 12.1435C20.6252 12.075 20.6178 11.9996 20.6322 11.9268C20.6467 11.8541 20.6824 11.7873 20.7349 11.7348C20.7873 11.6824 20.8541 11.6467 20.9269 11.6322C20.9996 11.6177 21.075 11.6252 21.1435 11.6535C21.2121 11.6819 21.2706 11.73 21.3118 11.7917C21.353 11.8533 21.375 11.9258 21.375 12C21.375 12.0995 21.3355 12.1948 21.2652 12.2652C21.1949 12.3355 21.0995 12.375 21 12.375Z" fill="white"/>
<path d="M12 4.875C10.5908 4.875 9.21327 5.29287 8.04157 6.07578C6.86987 6.85868 5.95664 7.97146 5.41736 9.27338C4.87809 10.5753 4.73699 12.0079 5.01191 13.39C5.28683 14.7721 5.96542 16.0417 6.96187 17.0381C7.95832 18.0346 9.22787 18.7132 10.61 18.9881C11.9921 19.263 13.4247 19.1219 14.7266 18.5826C16.0285 18.0434 17.1413 17.1301 17.9242 15.9584C18.7071 14.7867 19.125 13.4092 19.125 12C19.1229 10.111 18.3715 8.29996 17.0358 6.96423C15.7 5.6285 13.889 4.87714 12 4.875V4.875ZM14.5715 12.193L12.3215 15.943C12.2882 15.9985 12.2411 16.0444 12.1847 16.0763C12.1284 16.1082 12.0647 16.125 12 16.125C11.9353 16.125 11.8716 16.1082 11.8153 16.0763C11.7589 16.0444 11.7118 15.9985 11.6785 15.943L9.42848 12.193C9.39561 12.134 9.37836 12.0675 9.37836 12C9.37836 11.9325 9.39561 11.866 9.42848 11.807L11.6785 8.05702C11.7143 8.00483 11.7623 7.96215 11.8183 7.93266C11.8743 7.90317 11.9367 7.88776 12 7.88776C12.0633 7.88776 12.1257 7.90317 12.1817 7.93266C12.2377 7.96215 12.2857 8.00483 12.3215 8.05702L14.5715 11.807C14.5849 11.8334 14.5966 11.8606 14.6065 11.8885C14.6355 11.9906 14.6229 12.1001 14.5715 12.193Z" fill="white"/>
</svg>
