<svg width="24" height="24" viewBox="0 0 24 24" fill="none" xmlns="http://www.w3.org/2000/svg">
<path d="M17.8451 4.00014C17.7259 4.00284 17.6005 4.01637 17.4783 4.04341L4.76087 7.00735C3.7337 7.24533 3 8.07827 3 9.01937V18.5386C3 19.6771 4.0608 20.6155 5.34783 20.6155H19.4348C20.7218 20.6155 21.7826 19.6771 21.7826 18.5386V9.5386C21.7826 8.40008 20.7218 7.46168 19.4348 7.46168H8.96739L17.8696 5.38476V6.76937H19.4348V5.38476C19.4348 4.60591 18.6858 3.98932 17.8451 4.00014ZM5.34783 8.84629H19.4348C19.8781 8.84629 20.2174 9.14647 20.2174 9.5386V18.5386C20.2174 18.9307 19.8781 19.2309 19.4348 19.2309H5.34783C4.90455 19.2309 4.56522 18.9307 4.56522 18.5386V9.5386C4.56522 9.14647 4.90455 8.84629 5.34783 8.84629ZM17.4783 13.0001C16.8302 13.0001 16.3043 13.4653 16.3043 14.0386C16.3043 14.6119 16.8302 15.0771 17.4783 15.0771C18.1264 15.0771 18.6522 14.6119 18.6522 14.0386C18.6522 13.4653 18.1264 13.0001 17.4783 13.0001Z" fill="white"/>
</svg>
