<svg width="272" height="56" viewBox="0 0 272 56" fill="none" xmlns="http://www.w3.org/2000/svg">
<rect x="144" width="56" height="56" rx="12" fill="#5A00EC"/>
<g clip-path="url(#clip0_1_400)">
<path d="M166.387 34.1307H175.893L175.439 32.6607L176.525 33.5927L177.52 34.4847L179.333 36V21.65C179.288 20.758 178.52 20 177.568 20L166.39 20.002C165.439 20.002 164.667 20.7613 164.667 21.6533V32.48C164.667 33.4207 165.437 34.1307 166.387 34.1307V34.1307ZM173.419 23.7887L173.397 23.7967L173.405 23.7887H173.419ZM168.331 24.6347C169.553 23.7453 170.686 23.788 170.686 23.788L170.777 23.878C169.282 24.2347 168.604 24.9027 168.604 24.9027C168.604 24.9027 168.785 24.814 169.102 24.6787C171.116 23.8867 173.315 23.944 175.351 24.9467C175.351 24.9467 174.672 24.322 173.269 23.922L173.393 23.8C173.587 23.8007 174.613 23.8367 175.712 24.64C175.712 24.64 176.941 26.74 176.941 29.32C176.901 29.2707 176.179 30.4307 174.321 30.4707C174.321 30.4707 174.006 30.1147 173.782 29.804C174.869 29.492 175.275 28.868 175.275 28.868C174.919 29.0927 174.593 29.226 174.329 29.3593C173.923 29.538 173.517 29.626 173.111 29.716C171.188 30.028 170.109 29.506 169.089 29.092L168.74 28.9147C168.74 28.9147 169.146 29.5387 170.189 29.8507C169.915 30.1633 169.644 30.5187 169.644 30.5187C167.787 30.4747 167.109 29.3147 167.109 29.3147C167.109 26.7307 168.331 24.6347 168.331 24.6347V24.6347Z" fill="white"/>
<path d="M173.539 28.5138C174.013 28.5138 174.399 28.1138 174.399 27.6205C174.399 27.1305 174.015 26.7305 173.539 26.7305V26.7325C173.067 26.7325 172.68 27.1311 172.679 27.6245C172.679 28.1138 173.065 28.5138 173.539 28.5138Z" fill="white"/>
<path d="M170.46 28.5138C170.934 28.5138 171.32 28.1138 171.32 27.6205C171.32 27.1305 170.937 26.7305 170.463 26.7305L170.46 26.7325C169.986 26.7325 169.6 27.1311 169.6 27.6245C169.6 28.1138 169.986 28.5138 170.46 28.5138V28.5138Z" fill="white"/>
</g>
<rect width="56" height="56" rx="12" fill="#1877F2"/>
<g clip-path="url(#clip1_1_400)">
<path d="M30.6648 22.6567H32.1254V20.1127C31.8734 20.078 31.0068 20 29.9974 20C27.8914 20 26.4488 21.3247 26.4488 23.7593V26H24.1248V28.844H26.4488V36H29.2981V28.8447H31.5281L31.8821 26.0007H29.2974V24.0413C29.2981 23.2193 29.5194 22.6567 30.6648 22.6567V22.6567Z" fill="white"/>
</g>
<rect x="216" width="56" height="56" rx="12" fill="#0AC5FF"/>
<g clip-path="url(#clip2_1_400)">
<path d="M250.356 24.742C251.007 24.28 251.554 23.7033 252 23.0393V23.0387C251.405 23.2993 250.771 23.4727 250.11 23.5567C250.79 23.1507 251.309 22.5127 251.553 21.744C250.919 22.122 250.219 22.3887 249.473 22.538C248.871 21.8967 248.013 21.5 247.077 21.5C245.261 21.5 243.799 22.974 243.799 24.7807C243.799 25.0407 243.821 25.2907 243.875 25.5287C241.149 25.3953 238.735 24.0887 237.114 22.0973C236.831 22.5887 236.665 23.1507 236.665 23.7553C236.665 24.8913 237.249 25.898 238.122 26.4813C237.595 26.4713 237.078 26.318 236.64 26.0773V26.1133C236.64 27.7073 237.777 29.0313 239.268 29.3367C239.001 29.41 238.71 29.4447 238.408 29.4447C238.198 29.4447 237.986 29.4327 237.787 29.3887C238.212 30.6873 239.419 31.6427 240.852 31.674C239.736 32.5467 238.319 33.0727 236.785 33.0727C236.516 33.0727 236.258 33.0607 236 33.028C237.453 33.9647 239.175 34.5 241.032 34.5C246.821 34.5 250.593 29.6707 250.356 24.742V24.742Z" fill="white"/>
</g>
<rect x="72" width="56" height="56" rx="12" fill="#E52D27"/>
<path d="M107.183 24.251C107.01 23.6084 106.504 23.1019 105.861 22.9288C104.687 22.6077 99.992 22.6077 99.992 22.6077C99.992 22.6077 95.2969 22.6077 94.1231 22.9167C93.493 23.0895 92.9739 23.6085 92.8011 24.251C92.4922 25.4247 92.4922 27.8589 92.4922 27.8589C92.4922 27.8589 92.4922 30.3052 92.8011 31.4667C92.9741 32.1092 93.4806 32.6157 94.1232 32.7888C95.3093 33.11 99.9922 33.11 99.9922 33.11C99.9922 33.11 104.687 33.11 105.861 32.8011C106.504 32.6281 107.01 32.1215 107.183 31.479C107.492 30.3052 107.492 27.8712 107.492 27.8712C107.492 27.8712 107.504 25.4247 107.183 24.251V24.251ZM98.4971 30.1076V25.6101L102.401 27.8589L98.4971 30.1076Z" fill="white"/>
<defs>
<clipPath id="clip0_1_400">
<rect width="16" height="16" fill="white" transform="translate(164 20)"/>
</clipPath>
<clipPath id="clip1_1_400">
<rect width="16" height="16" fill="white" transform="translate(20 20)"/>
</clipPath>
<clipPath id="clip2_1_400">
<rect width="16" height="16" fill="white" transform="translate(236 20)"/>
</clipPath>
</defs>
</svg>
