<svg width="739" height="1480" viewBox="0 0 739 1480" fill="none" xmlns="http://www.w3.org/2000/svg">
<mask id="mask0_1_78" style="mask-type:alpha" maskUnits="userSpaceOnUse" x="-581" y="0" width="1320" height="1480">
<rect x="58.6758" y="1479.84" width="1252" height="790" transform="rotate(-120.672 58.6758 1479.84)" fill="url(#paint0_radial_1_78)"/>
</mask>
<g mask="url(#mask0_1_78)">
<path d="M-47.9241 117.07C-47.9241 117.07 -56.6603 223.536 -25.0815 279.083C-0.756196 321.871 42.6614 323.008 65.7121 366.496C94.9133 421.587 90.9663 459.063 78.708 525.629C66.4497 592.194 34.9946 658.755 77.0139 723.703C116.522 784.77 174.288 801.459 244.499 805.161C314.709 808.863 419.455 800.22 457.323 840.544C495.19 880.868 471.749 904.073 499.791 954.294C527.833 1004.51 575.757 1024.35 647.828 1049.03C669.251 1056.37 706.603 1058.93 706.603 1058.93" stroke="#C5D2ED" stroke-width="3"/>
<path d="M-106.749 151.957C-106.749 151.957 -115.486 258.424 -83.9067 313.97C-59.5814 356.758 -16.1639 357.895 6.88683 401.383C36.0881 456.475 32.1411 493.951 19.8828 560.516C7.62445 627.082 -23.8306 693.643 18.1887 758.591C57.6966 819.658 115.463 836.347 185.673 840.049C255.884 843.751 360.63 835.108 398.497 875.432C436.365 915.756 412.923 938.961 440.965 989.182C469.007 1039.4 516.931 1059.24 589.003 1083.92C610.425 1091.25 647.777 1093.82 647.777 1093.82" stroke="#C5D2ED" stroke-width="3"/>
<path d="M-165.573 186.845C-165.573 186.845 -174.309 293.311 -142.73 348.858C-118.405 391.646 -74.9871 392.783 -51.9364 436.271C-22.7352 491.363 -26.6822 528.838 -38.9405 595.404C-51.1988 661.97 -82.6539 728.531 -40.6346 793.479C-1.12663 854.546 56.6397 871.235 126.85 874.937C197.061 878.639 301.806 869.996 339.674 910.32C377.542 950.644 354.1 973.849 382.142 1024.07C410.184 1074.29 458.108 1094.13 530.18 1118.81C551.602 1126.14 588.954 1128.71 588.954 1128.71" stroke="#C5D2ED" stroke-width="3"/>
<path d="M-224.398 221.733C-224.398 221.733 -233.134 328.199 -201.555 383.746C-177.23 426.534 -133.812 427.671 -110.762 471.159C-81.5604 526.251 -85.5075 563.726 -97.7658 630.292C-110.024 696.858 -141.479 763.418 -99.4598 828.367C-59.9519 889.433 -2.18558 906.123 68.0249 909.825C138.235 913.526 242.981 904.884 280.849 945.208C318.717 985.532 295.275 1008.74 323.317 1058.96C351.359 1109.18 399.283 1129.01 471.354 1153.69C492.777 1161.03 530.129 1163.6 530.129 1163.6" stroke="#C5D2ED" stroke-width="3"/>
<path d="M-283.221 256.625C-283.221 256.625 -291.957 363.091 -260.379 418.638C-236.053 461.426 -192.636 462.563 -169.585 506.051C-140.384 561.142 -144.331 598.618 -156.589 665.184C-168.847 731.75 -200.302 798.31 -158.283 863.259C-118.775 924.325 -61.0088 941.015 9.20167 944.716C79.4122 948.418 184.158 939.775 222.026 980.1C259.893 1020.42 236.452 1043.63 264.494 1093.85C292.536 1144.07 340.46 1163.9 412.531 1188.58C433.954 1195.92 471.306 1198.49 471.306 1198.49" stroke="#C5D2ED" stroke-width="3"/>
<path d="M-342.046 291.514C-342.046 291.514 -350.782 397.98 -319.203 453.527C-294.878 496.314 -251.46 497.452 -228.41 540.939C-199.208 596.031 -203.155 633.507 -215.414 700.073C-227.672 766.638 -259.127 833.199 -217.108 898.147C-177.6 959.214 -119.833 975.903 -49.6229 979.605C20.5876 983.307 125.333 974.664 163.201 1014.99C201.069 1055.31 177.627 1078.52 205.669 1128.74C233.711 1178.96 281.635 1198.79 353.707 1223.47C375.129 1230.81 412.481 1233.38 412.481 1233.38" stroke="#C5D2ED" stroke-width="3"/>
</g>
<defs>
<radialGradient id="paint0_radial_1_78" cx="0" cy="0" r="1" gradientUnits="userSpaceOnUse" gradientTransform="translate(684.676 2012.34) rotate(-90) scale(361 450.336)">
<stop stop-color="#263F9B"/>
<stop offset="0.505208" stop-color="#263F9B" stop-opacity="0.37"/>
<stop offset="1" stop-color="#263F9B" stop-opacity="0.24"/>
</radialGradient>
</defs>
</svg>
