<svg width="780" height="1290" viewBox="0 0 780 1290" fill="none" xmlns="http://www.w3.org/2000/svg">
<mask id="mask0_1_42" style="mask-type:alpha" maskUnits="userSpaceOnUse" x="0" y="0" width="1477" height="1290">
<rect y="594.651" width="1252" height="790" transform="rotate(-28.3568 0 594.651)" fill="url(#paint0_radial_1_42)"/>
</mask>
<g mask="url(#mask0_1_42)">
<path d="M1365.97 543.194C1365.97 543.194 1259.94 530.164 1203.17 559.473C1159.43 582.05 1156.54 625.386 1112.16 646.661C1055.93 673.612 1018.64 668.155 952.627 653.217C886.611 638.28 821.376 604.161 754.783 643.522C692.17 680.531 673.16 737.576 666.625 807.579C660.09 877.583 664.494 982.592 622.673 1018.8C580.852 1055.01 558.613 1030.65 507.3 1056.64C455.988 1082.63 434.233 1129.71 406.661 1200.73C398.466 1221.84 394.392 1259.05 394.392 1259.05" stroke="#C5D2ED" stroke-width="3"/>
<path d="M1333.49 483.007C1333.49 483.007 1227.46 469.977 1170.68 499.286C1126.95 521.863 1124.06 565.199 1079.67 586.474C1023.45 613.426 986.161 607.968 920.144 593.03C854.128 578.093 788.893 543.974 722.3 583.336C659.687 620.344 640.677 677.389 634.142 747.393C627.607 817.396 632.011 922.406 590.19 958.613C548.369 994.821 526.13 970.461 474.818 996.451C423.505 1022.44 401.75 1069.52 374.178 1140.54C365.983 1161.65 361.909 1198.87 361.909 1198.87" stroke="#C5D2ED" stroke-width="3"/>
<path d="M1301 422.823C1301 422.823 1194.98 409.792 1138.2 439.101C1094.46 461.678 1091.57 505.014 1047.19 526.289C990.963 553.241 953.678 547.783 887.662 532.846C821.645 517.908 756.41 483.79 689.817 523.151C627.204 560.16 608.195 617.204 601.659 687.208C595.124 757.212 599.528 862.221 557.707 898.429C515.886 934.637 493.648 910.276 442.335 936.267C391.022 962.257 369.267 1009.34 341.696 1080.36C333.5 1101.46 329.426 1138.68 329.426 1138.68" stroke="#C5D2ED" stroke-width="3"/>
<path d="M1268.52 362.636C1268.52 362.636 1162.49 349.606 1105.72 378.915C1061.98 401.491 1059.09 444.828 1014.71 466.103C958.481 493.054 921.195 487.597 855.179 472.659C789.163 457.721 723.927 423.603 657.334 462.964C594.721 499.973 575.712 557.018 569.177 627.021C562.641 697.025 567.045 802.034 525.224 838.242C483.403 874.45 461.165 850.09 409.852 876.08C358.539 902.07 336.784 949.154 309.213 1020.17C301.017 1041.28 296.943 1078.5 296.943 1078.5" stroke="#C5D2ED" stroke-width="3"/>
<path d="M1236.03 302.451C1236.03 302.451 1130.01 289.421 1073.23 318.73C1029.49 341.307 1026.6 384.643 982.22 405.918C925.994 432.87 888.708 427.412 822.692 412.474C756.676 397.537 691.44 363.418 624.847 402.779C562.234 439.788 543.225 496.833 536.69 566.837C530.155 636.84 534.558 741.849 492.737 778.057C450.916 814.265 428.678 789.905 377.365 815.895C326.052 841.885 304.298 888.969 276.726 959.985C268.531 981.093 264.456 1018.31 264.456 1018.31" stroke="#C5D2ED" stroke-width="3"/>
<path d="M1203.55 242.265C1203.55 242.265 1097.52 229.235 1040.75 258.544C997.01 281.121 994.12 324.457 949.736 345.732C893.51 372.683 856.224 367.226 790.208 352.288C724.192 337.351 658.957 303.232 592.363 342.593C529.751 379.602 510.741 436.647 504.206 506.65C497.671 576.654 502.075 681.663 460.254 717.871C418.433 754.079 396.194 729.719 344.881 755.709C293.568 781.699 271.814 828.783 244.242 899.799C236.047 920.907 231.973 958.125 231.973 958.125" stroke="#C5D2ED" stroke-width="3"/>
</g>
<defs>
<radialGradient id="paint0_radial_1_42" cx="0" cy="0" r="1" gradientUnits="userSpaceOnUse" gradientTransform="translate(626 1127.15) rotate(-90) scale(361 450.336)">
<stop stop-color="#263F9B"/>
<stop offset="0.505208" stop-color="#263F9B" stop-opacity="0.37"/>
<stop offset="1" stop-color="#263F9B" stop-opacity="0.12"/>
</radialGradient>
</defs>
</svg>
