<svg width="704" height="1328" viewBox="0 0 704 1328" fill="none" xmlns="http://www.w3.org/2000/svg">
<mask id="mask0_1_33" style="mask-type:alpha" maskUnits="userSpaceOnUse" x="-777" y="0" width="1481" height="1328">
<rect x="290.873" y="1327.39" width="1252" height="790" transform="rotate(-148.532 290.873 1327.39)" fill="url(#paint0_radial_1_33)"/>
</mask>
<g mask="url(#mask0_1_33)">
<path d="M-440.212 172.383C-440.212 172.383 -398.183 270.592 -344.307 304.943C-302.806 331.404 -263.889 312.12 -223.188 339.795C-171.626 374.855 -157.603 409.832 -137.333 474.41C-117.064 538.989 -113.768 612.534 -46.2682 650.318C17.1977 685.844 76.0675 673.604 139.87 644.067C203.672 614.529 292.238 557.94 344.561 575.894C396.883 593.848 387.003 625.317 435.263 656.613C483.524 687.909 535.162 683.049 610.413 671.188C632.781 667.663 667.003 652.478 667.003 652.478" stroke="#C5D2ED" stroke-width="3"/>
<path d="M-475.916 230.717C-475.916 230.717 -433.887 328.925 -380.01 363.277C-338.509 389.738 -299.593 370.453 -258.891 398.129C-207.33 433.189 -193.306 468.165 -173.037 532.744C-152.767 597.323 -149.472 670.868 -81.9716 708.652C-18.5058 744.178 40.3641 731.938 104.167 702.401C167.969 672.863 256.535 616.273 308.858 634.227C361.18 652.182 351.299 683.651 399.56 714.947C447.82 746.242 499.459 741.383 574.71 729.522C597.077 725.997 631.3 710.811 631.3 710.811" stroke="#C5D2ED" stroke-width="3"/>
<path d="M-511.618 289.05C-511.618 289.05 -469.588 387.258 -415.712 421.61C-374.211 448.071 -335.294 428.786 -294.593 456.462C-243.031 491.522 -229.008 526.498 -208.738 591.077C-188.469 655.656 -185.174 729.201 -117.673 766.985C-54.2075 802.511 4.66239 790.271 68.4648 760.734C132.267 731.196 220.833 674.606 273.156 692.56C325.478 710.514 315.597 741.984 363.858 773.28C412.119 804.575 463.757 799.715 539.008 787.855C561.376 784.33 595.598 769.144 595.598 769.144" stroke="#C5D2ED" stroke-width="3"/>
<path d="M-547.321 347.384C-547.321 347.384 -505.292 445.592 -451.415 479.943C-409.914 506.404 -370.998 487.12 -330.296 514.796C-278.735 549.856 -264.711 584.832 -244.442 649.411C-224.172 713.99 -220.877 787.534 -153.377 825.319C-89.9109 860.845 -31.041 848.605 32.7614 819.067C96.5638 789.53 185.13 732.94 237.452 750.894C289.775 768.848 279.894 800.318 328.155 831.613C376.415 862.909 428.053 858.049 503.305 846.189C525.672 842.663 559.895 827.478 559.895 827.478" stroke="#C5D2ED" stroke-width="3"/>
<path d="M-583.021 405.72C-583.021 405.72 -540.992 503.928 -487.115 538.28C-445.614 564.741 -406.698 545.456 -365.996 573.132C-314.435 608.192 -300.411 643.168 -280.142 707.747C-259.872 772.326 -256.577 845.871 -189.077 883.655C-125.611 919.181 -66.7409 906.941 -2.93848 877.404C60.8639 847.866 149.43 791.276 201.753 809.23C254.075 827.185 244.194 858.654 292.455 889.95C340.715 921.245 392.353 916.386 467.605 904.525C489.972 901 524.195 885.814 524.195 885.814" stroke="#C5D2ED" stroke-width="3"/>
<path d="M-618.723 464.054C-618.723 464.054 -576.694 562.263 -522.818 596.614C-481.316 623.075 -442.4 603.791 -401.699 631.466C-350.137 666.526 -336.114 701.503 -315.844 766.082C-295.575 830.66 -292.279 904.205 -224.779 941.99C-161.313 977.516 -102.443 965.276 -38.6409 935.738C25.1615 906.2 113.728 849.611 166.05 867.565C218.373 885.519 208.492 916.989 256.752 948.284C305.013 979.58 356.651 974.72 431.902 962.86C454.27 959.334 488.492 944.149 488.492 944.149" stroke="#C5D2ED" stroke-width="3"/>
</g>
<defs>
<radialGradient id="paint0_radial_1_33" cx="0" cy="0" r="1" gradientUnits="userSpaceOnUse" gradientTransform="translate(916.873 1859.89) rotate(-90) scale(361 450.336)">
<stop stop-color="#263F9B"/>
<stop offset="0.505208" stop-color="#263F9B" stop-opacity="0.37"/>
<stop offset="1" stop-color="#263F9B" stop-opacity="0.12"/>
</radialGradient>
</defs>
</svg>
