<svg width="647" height="1069" viewBox="0 0 647 1069" fill="none" xmlns="http://www.w3.org/2000/svg">
<mask id="mask0_1_87" style="mask-type:alpha" maskUnits="userSpaceOnUse" x="0" y="0" width="1406" height="1069">
<rect y="301.324" width="1252" height="790" transform="rotate(-13.9264 0 301.324)" fill="url(#paint0_radial_1_87)"/>
</mask>
<g mask="url(#mask0_1_87)">
<path d="M1335.7 591.896C1335.7 591.896 1236.26 552.855 1173.97 567.09C1125.99 578.056 1112.39 619.304 1064.11 628.847C1002.94 640.937 968.189 626.36 907.978 595.442C847.767 564.524 793.092 515.225 718.791 536.749C648.931 556.987 616.305 607.494 592.531 673.661C568.757 739.827 546.853 842.621 497.328 867.265C447.803 891.908 432.337 862.775 376.166 875.158C319.995 887.54 287.194 927.717 242.794 989.621C229.597 1008.02 216.377 1043.05 216.377 1043.05" stroke="#C5D2ED" stroke-width="3"/>
<path d="M1319.24 525.514C1319.24 525.514 1219.8 486.472 1157.51 500.707C1109.53 511.673 1095.93 552.921 1047.65 562.465C986.479 574.554 951.73 559.977 891.519 529.059C831.308 498.141 776.633 448.842 702.332 470.366C632.472 490.604 599.846 541.112 576.072 607.278C552.297 673.445 530.393 776.239 480.869 800.882C431.344 825.525 415.878 796.392 359.707 808.775C303.536 821.158 270.734 861.334 226.335 923.239C213.138 941.639 199.918 976.667 199.918 976.667" stroke="#C5D2ED" stroke-width="3"/>
<path d="M1302.78 459.133C1302.78 459.133 1203.34 420.091 1141.05 434.327C1093.07 445.292 1079.47 486.541 1031.19 496.084C970.019 508.173 935.27 493.596 875.059 462.678C814.848 431.76 760.173 382.461 685.872 403.985C616.012 424.223 583.386 474.731 559.612 540.897C535.838 607.064 513.934 709.858 464.409 734.501C414.884 759.145 399.418 730.011 343.247 742.394C287.076 754.777 254.275 794.953 209.875 856.858C196.678 875.258 183.458 910.286 183.458 910.286" stroke="#C5D2ED" stroke-width="3"/>
<path d="M1286.32 392.75C1286.32 392.75 1186.88 353.709 1124.59 367.944C1076.61 378.909 1063.01 420.158 1014.73 429.701C953.56 441.791 918.811 427.213 858.6 396.295C798.389 365.378 743.714 316.079 669.413 337.603C599.553 357.84 566.927 408.348 543.153 474.515C519.379 540.681 497.475 643.475 447.95 668.118C398.425 692.762 382.959 663.628 326.788 676.011C270.617 688.394 237.815 728.571 193.416 790.475C180.219 808.875 166.999 843.904 166.999 843.904" stroke="#C5D2ED" stroke-width="3"/>
<path d="M1269.86 326.368C1269.86 326.368 1170.42 287.327 1108.13 301.562C1060.15 312.527 1046.55 353.776 998.265 363.319C937.096 375.409 902.347 360.831 842.136 329.914C781.925 298.996 727.25 249.697 652.949 271.221C583.089 291.458 550.463 341.966 526.689 408.133C502.915 474.299 481.011 577.093 431.486 601.737C381.962 626.38 366.495 597.247 310.325 609.629C254.154 622.012 221.352 662.189 176.953 724.093C163.756 742.493 150.535 777.522 150.535 777.522" stroke="#C5D2ED" stroke-width="3"/>
<path d="M1253.39 259.986C1253.39 259.986 1153.96 220.944 1091.67 235.18C1043.69 246.145 1030.09 287.394 981.805 296.937C920.636 309.026 885.887 294.449 825.676 263.531C765.465 232.613 710.79 183.314 636.489 204.838C566.629 225.076 534.003 275.584 510.229 341.75C486.455 407.917 464.551 510.711 415.026 535.354C365.501 559.998 350.035 530.864 293.864 543.247C237.693 555.63 204.892 595.807 160.492 657.711C147.295 676.111 134.075 711.139 134.075 711.139" stroke="#C5D2ED" stroke-width="3"/>
</g>
<defs>
<radialGradient id="paint0_radial_1_87" cx="0" cy="0" r="1" gradientUnits="userSpaceOnUse" gradientTransform="translate(626 833.824) rotate(-90) scale(361 450.336)">
<stop stop-color="#263F9B"/>
<stop offset="0.505208" stop-color="#263F9B" stop-opacity="0.37"/>
<stop offset="1" stop-color="#263F9B" stop-opacity="0.24"/>
</radialGradient>
</defs>
</svg>
