<svg width="24" height="24" viewBox="0 0 24 24" fill="none" xmlns="http://www.w3.org/2000/svg">
<path d="M20.0678 21.3679L20.0678 21.368L20.0631 21.3633L16.9049 18.1987C15.2764 19.5266 13.2845 20.1967 11.2867 20.1967C9.00327 20.1967 6.71879 19.3257 4.98324 17.5901C3.29641 15.9033 2.37002 13.6664 2.37002 11.2867C2.37002 8.90725 3.29622 6.66339 4.9836 4.98286C8.46113 1.50572 14.1192 1.50556 17.5902 4.98331C20.8478 8.24095 21.048 13.4075 18.1985 16.905L21.3635 20.0699C21.7211 20.4275 21.7211 21.0058 21.3635 21.3634L21.3635 21.3635L21.3589 21.3679C21.1806 21.5372 20.9529 21.63 20.7133 21.63C20.4738 21.63 20.2461 21.5372 20.0678 21.3679ZM16.2966 6.27678C14.9186 4.89885 13.103 4.20333 11.2867 4.20333C9.47015 4.20333 7.66127 4.8923 6.27679 6.27678C4.93713 7.61644 4.20335 9.3928 4.20335 11.2867C4.20335 13.1805 4.93713 14.9569 6.27679 16.2966C9.03916 19.0589 13.5342 19.0589 16.2966 16.2966C19.0589 13.5342 19.0589 9.03915 16.2966 6.27678Z" fill="white" stroke="white" stroke-width="0.5"/>
</svg>
