<svg width="1304" height="853" viewBox="0 0 1304 853" fill="none" xmlns="http://www.w3.org/2000/svg">
<path d="M2 12.5C2 6.5 8.33333 3 11.5 2L1284.5 3C1297.3 1.8 1301.17 9.5 1301.5 13.5V840C1303.1 846.4 1297.5 850 1294.5 851H7C3.8 851.8 2.33333 850.667 2 850V12.5Z" stroke="url(#paint0_linear_1_222)" stroke-width="3"/>
<path d="M2 12.5C2 6.5 8.33333 3 11.5 2L1284.5 3C1297.3 1.8 1301.17 9.5 1301.5 13.5V840C1303.1 846.4 1297.5 850 1294.5 851H7C3.8 851.8 2.33333 850.667 2 850V12.5Z" stroke="url(#paint1_linear_1_222)" stroke-width="3"/>
<defs>
<linearGradient id="paint0_linear_1_222" x1="34.5" y1="1.99999" x2="342" y2="280" gradientUnits="userSpaceOnUse">
<stop stop-color="white"/>
<stop offset="1" stop-color="white" stop-opacity="0"/>
</linearGradient>
<linearGradient id="paint1_linear_1_222" x1="932.5" y1="17" x2="1156" y2="377.5" gradientUnits="userSpaceOnUse">
<stop stop-color="white" stop-opacity="0"/>
<stop offset="1" stop-color="white"/>
</linearGradient>
</defs>
</svg>
